<svg xmlns="http://www.w3.org/2000/svg" style="display:none">
  <!-- Logo forum : bulles de discussion -->
  <symbol id="icon-forum" viewBox="0 0 24 24">
    <path d="M21 11.5a8.38 8.38 0 0 1-.9 3.8 8.5 8.5 0 0 1-7.6 4.7 8.38 8.38 0 0 1-3.8-.9L3 21l1.9-5.7a8.38 8.38 0 0 1-.9-3.8 8.5 8.5 0 0 1 4.7-7.6 8.38 8.38 0 0 1 3.8-.9h.5a8.48 8.48 0 0 1 8 8v.5z" fill="none" stroke="currentColor" stroke-width="1.5" stroke-linecap="round" stroke-linejoin="round"/>
  </symbol>
  <!-- Publier -->
  <symbol id="icon-pen" viewBox="0 0 24 24">
    <path d="M12 20h9" fill="none" stroke="currentColor" stroke-width="1.5" stroke-linecap="round"/>
    <path d="M16.5 3.5a2.12 2.12 0 0 1 3 3L7 19l-4 1 1-4 12.5-12.5z" fill="none" stroke="currentColor" stroke-width="1.5" stroke-linecap="round" stroke-linejoin="round"/>
  </symbol>
  <!-- Commenter -->
  <symbol id="icon-message" viewBox="0 0 24 24">
    <path d="M21 15a2 2 0 0 1-2 2H7l-4 4V5a2 2 0 0 1 2-2h14a2 2 0 0 1 2 2z" fill="none" stroke="currentColor" stroke-width="1.5" stroke-linecap="round" stroke-linejoin="round"/>
  </symbol>
  <!-- Espace personnel -->
  <symbol id="icon-user" viewBox="0 0 24 24">
    <circle cx="12" cy="8" r="4" fill="none" stroke="currentColor" stroke-width="1.5"/>
    <path d="M4 20c0-3.3 3.6-6 8-6s8 2.7 8 6" fill="none" stroke="currentColor" stroke-width="1.5" stroke-linecap="round"/>
  </symbol>
</svg>
